<?xml version="1.0" encoding="UTF-8"?>
<svg id="Layer_1" data-name="Layer 1" xmlns="http://www.w3.org/2000/svg" viewBox="0 0 1024 1024">
  <defs>
    <style>
      .cls-1 {
        fill: #fff;
      }

      .cls-2 {
        fill: #2a4bb5;
      }
    </style>
  </defs>
  <rect class="cls-1" x="298.79" y="298.79" width="426.41" height="426.41" rx="106.49" ry="106.49"/>
  <g>
    <path class="cls-2" d="M651.65,595.6c-6.39-.03-11.43-1.96-15.48-6.02-12.22-12.25-24.37-24.59-36.53-36.9-7.74-7.83-15.45-15.69-23.18-23.53-9.2-9.33-18.41-18.65-27.61-27.98-8.43-8.54-16.86-17.09-25.28-25.64-5.31-5.4-10.6-10.82-15.92-16.22-1.9-1.93-2.05-1.92-3.89-.06-12.31,12.49-24.61,24.98-36.92,37.47-4.83,4.9-9.62,9.82-14.52,14.65-8.51,8.4-22,8.38-30.38.03-8.53-8.5-8.53-22.32-.1-30.85,9.42-9.53,18.73-19.17,28.13-28.72,8.05-8.18,16.16-16.3,24.23-24.45,5.25-5.3,10.49-10.61,15.72-15.93,9.01-9.19,22.48-9.18,31.47-.04,11.85,12.04,23.77,24.02,35.64,36.05,9.24,9.37,18.44,18.8,27.68,28.17,9.86,10,19.75,19.96,29.63,29.94,6.23,6.3,12.46,12.6,18.67,18.91,8.33,8.48,16.64,16.98,24.96,25.46,2.89,2.95,5.85,5.84,8.68,8.84,3.78,4.01,5.61,8.75,5.91,14.34.56,10.38-7.12,20.32-17.71,22.12-1.26.21-2.54.28-3.18.34Z"/>
    <path class="cls-2" d="M527.9,502.87c-.68-5.56-3.14-10.31-7.24-13.99-8.57-7.69-23.39-7.81-32.06,1.16-11.42,11.81-23.07,23.41-34.64,35.08-5.99,6.04-12.02,12.04-18,18.08-6.27,6.34-12.51,12.7-18.75,19.08-.79.8-1.34.83-2.15,0-.25-.25-.49-.49-.74-.74h0c-7.83-7.88-15.66-15.76-23.37-23.74-5.23-5.41-12.69-7.51-19.68-6.64-.65.06-1.31.13-1.98.24-5.66,1-9.68,4.5-9.68,4.61-.25.2-.5.41-.73.62-4.11,3.68-6.56,8.44-7.24,13.99-.97,7.88,1.5,14.52,7.09,20.13.3.3.59.6.89.89v.05c1.88,1.91,3.75,3.83,5.64,5.73,11.58,11.74,23.09,23.55,34.77,35.18,9.08,9.05,23.18,9.06,32.22.06,9.17-9.12,18.16-18.42,27.24-27.64,8.14-8.26,16.27-16.53,24.43-24.78,12.29-12.44,24.56-24.89,36.9-37.27,5.59-5.62,8.06-12.25,7.09-20.13Z"/>
  </g>
</svg>
