<?xml version="1.0" encoding="UTF-8"?>
<svg id="Layer_1" data-name="Layer 1" xmlns="http://www.w3.org/2000/svg" viewBox="0 0 1019.34 1019.34">
  <defs>
    <style>
      .cls-1 {
        fill: #fff;
      }

      .cls-2 {
        fill: #2a4bb5;
      }
    </style>
  </defs>
  <rect class="cls-2" x="241.14" y="241.14" width="537.06" height="537.06" rx="106.98" ry="106.98"/>
  <g>
    <path class="cls-1" d="M685.55,614.96c-8.05-.04-14.4-2.46-19.5-7.58-15.4-15.43-30.69-30.97-46.01-46.48-9.74-9.86-19.45-19.76-29.19-29.63-11.59-11.75-23.19-23.49-34.78-35.24-10.62-10.76-21.24-21.52-31.84-32.29-6.69-6.8-13.35-13.63-20.05-20.43-2.4-2.43-2.58-2.42-4.9-.08-15.51,15.72-31,31.46-46.5,47.19-6.08,6.17-12.12,12.37-18.28,18.45-10.72,10.58-27.71,10.56-38.27.04-10.75-10.71-10.74-28.11-.12-38.86,11.86-12,23.59-24.14,35.43-36.17,10.14-10.3,20.35-20.53,30.52-30.8,6.61-6.68,13.22-13.36,19.79-20.07,11.35-11.57,28.31-11.56,39.64-.05,14.93,15.17,29.94,30.26,44.88,45.41,11.64,11.8,23.22,23.67,34.86,35.48,12.42,12.59,24.88,25.14,37.32,37.71,7.85,7.93,15.69,15.86,23.51,23.82,10.49,10.68,20.96,21.38,31.44,32.07,3.64,3.71,7.36,7.35,10.93,11.14,4.76,5.05,7.07,11.02,7.44,18.06.7,13.07-8.97,25.59-22.31,27.86-1.58.27-3.2.35-4.01.43Z"/>
    <path class="cls-1" d="M529.7,498.18c-.86-7-3.95-12.99-9.12-17.63-10.79-9.68-29.46-9.84-40.38,1.46-14.39,14.88-29.06,29.48-43.63,44.18-7.54,7.61-15.14,15.16-22.67,22.77-7.9,7.98-15.76,16-23.61,24.03-.99,1.01-1.69,1.04-2.71.01-.31-.31-.62-.62-.93-.93h0c-9.86-9.92-19.72-19.85-29.44-29.9-6.59-6.81-15.99-9.45-24.78-8.36-.82.08-1.65.16-2.49.31-7.13,1.26-12.19,5.66-12.19,5.81-.31.26-.62.52-.93.79-5.17,4.64-8.27,10.63-9.12,17.63-1.22,9.92,1.89,18.28,8.93,25.35.37.37.74.75,1.11,1.12v.07c2.37,2.41,4.73,4.82,7.1,7.22,14.59,14.78,29.08,29.65,43.79,44.31,11.44,11.4,29.19,11.41,40.59.08,11.55-11.49,22.88-23.2,34.31-34.81,10.25-10.41,20.5-20.82,30.76-31.21,15.48-15.66,30.94-31.34,46.47-46.95,7.04-7.07,10.15-15.43,8.93-25.35Z"/>
  </g>
</svg>
