<?xml version="1.0" encoding="UTF-8"?>
<svg id="Layer_1" data-name="Layer 1" xmlns="http://www.w3.org/2000/svg" viewBox="0 0 402.62 402.62">
  <defs>
    <style>
      .cls-1 {
        fill: #2a4bb5;
      }
    </style>
  </defs>
  <g>
    <path class="cls-1" d="M268.65,205.3c-3.09-.02-5.53-.95-7.49-2.91-5.91-5.93-11.79-11.9-17.67-17.85-3.74-3.79-7.47-7.59-11.21-11.38-4.45-4.51-8.91-9.02-13.36-13.54-4.08-4.13-8.16-8.27-12.23-12.4-2.57-2.61-5.13-5.24-7.7-7.85-.92-.93-.99-.93-1.88-.03-5.96,6.04-11.91,12.09-17.86,18.13-2.34,2.37-4.66,4.75-7.02,7.09-4.12,4.06-10.64,4.06-14.7.02-4.13-4.11-4.13-10.8-.05-14.93,4.56-4.61,9.06-9.27,13.61-13.89,3.89-3.96,7.82-7.88,11.72-11.83,2.54-2.56,5.08-5.13,7.6-7.71,4.36-4.44,10.88-4.44,15.23-.02,5.73,5.83,11.5,11.62,17.24,17.44,4.47,4.53,8.92,9.09,13.39,13.63,4.77,4.84,9.56,9.66,14.33,14.49,3.01,3.05,6.03,6.09,9.03,9.15,4.03,4.1,8.05,8.21,12.08,12.32,1.4,1.43,2.83,2.83,4.2,4.28,1.83,1.94,2.71,4.23,2.86,6.94.27,5.02-3.45,9.83-8.57,10.7-.61.1-1.23.13-1.54.17Z"/>
    <path class="cls-1" d="M208.78,160.44c-.33-2.69-1.52-4.99-3.5-6.77-4.14-3.72-11.32-3.78-15.51.56-5.53,5.72-11.16,11.32-16.76,16.97-2.9,2.92-5.81,5.82-8.71,8.75-3.03,3.07-6.05,6.14-9.07,9.23-.38.39-.65.4-1.04,0-.12-.12-.24-.24-.36-.36h0c-3.79-3.81-7.57-7.62-11.31-11.49-2.53-2.62-6.14-3.63-9.52-3.21-.32.03-.63.06-.96.12-2.74.49-4.68,2.18-4.68,2.23-.12.1-.24.2-.36.3-1.99,1.78-3.18,4.08-3.5,6.77-.47,3.81.73,7.02,3.43,9.74.14.14.29.29.43.43v.03c.91.92,1.82,1.85,2.73,2.77,5.6,5.68,11.17,11.39,16.82,17.02,4.39,4.38,11.21,4.38,15.59.03,4.44-4.41,8.79-8.91,13.18-13.37,3.94-4,7.87-8,11.82-11.99,5.94-6.02,11.88-12.04,17.85-18.03,2.71-2.72,3.9-5.93,3.43-9.74Z"/>
  </g>
  <g>
    <path class="cls-1" d="M136.66,288.78h-12.05l-13.84-17.63-2.98,2.68v14.95h-9.67v-56.54h9.67v30.58l15.55-14.43h12.35l-18.23,16.66,19.19,23.73Z"/>
    <path class="cls-1" d="M145.96,243.54c-1.79,0-3.27-.57-4.46-1.71-1.19-1.14-1.79-2.6-1.79-4.39s.61-3.19,1.82-4.35c1.21-1.16,2.69-1.75,4.43-1.75s3.19.58,4.35,1.75c1.16,1.17,1.75,2.62,1.75,4.35s-.58,3.25-1.75,4.39c-1.17,1.14-2.62,1.71-4.35,1.71ZM150.72,248.38v40.4h-9.75v-40.4h9.75Z"/>
    <path class="cls-1" d="M170.06,288.78h-9.67v-40.4h9.3v5.58c2.48-4.41,6.22-6.62,11.23-6.62,1.69,0,3.3.27,4.84.82l-.82,9.3c-1.74-.55-3.3-.82-4.69-.82-3.12,0-5.61,1.05-7.44,3.16-1.84,2.11-2.75,5.2-2.75,9.26v19.71Z"/>
    <path class="cls-1" d="M220.65,253.51v-5.13h9.23v40.4h-9.23v-4.98c-3.52,3.97-7.91,5.95-13.17,5.95-5.8,0-10.59-2.03-14.36-6.1-3.77-4.07-5.65-9.15-5.65-15.25s1.88-11.11,5.65-15.03c3.82-3.97,8.6-5.95,14.36-5.95,5.16,0,9.55,2.03,13.17,6.1ZM220.88,268.54c0-3.42-1.12-6.32-3.35-8.7s-5.08-3.57-8.56-3.57-6.32,1.19-8.56,3.57c-2.18,2.43-3.27,5.33-3.27,8.7s1.09,6.35,3.27,8.78c2.23,2.38,5.08,3.57,8.56,3.57s6.32-1.19,8.56-3.57,3.35-5.31,3.35-8.78Z"/>
    <path class="cls-1" d="M288.13,247.26c4.76,0,8.68,1.54,11.75,4.61,3.07,3.08,4.61,7.27,4.61,12.57v24.33h-9.75v-22.54c0-3.22-.76-5.7-2.27-7.44-1.51-1.74-3.56-2.6-6.14-2.6-2.73,0-4.96.94-6.7,2.83-1.74,1.89-2.6,4.39-2.6,7.51v22.24h-9.67v-22.47c0-3.12-.78-5.59-2.34-7.4-1.56-1.81-3.63-2.72-6.21-2.72-2.73,0-4.97.96-6.73,2.86-1.76,1.91-2.64,4.43-2.64,7.55v22.17h-9.67v-40.4h9.52v5.8c1.14-2.13,2.81-3.82,5.02-5.06,2.21-1.24,4.62-1.86,7.25-1.86,2.73.05,5.16.69,7.29,1.93,2.13,1.24,3.72,3,4.76,5.28,1.44-2.28,3.45-4.05,6.03-5.32,2.58-1.26,5.41-1.9,8.48-1.9Z"/>
  </g>
</svg>
