<?xml version="1.0" encoding="UTF-8"?>
<svg id="Layer_1" data-name="Layer 1" xmlns="http://www.w3.org/2000/svg" viewBox="0 0 402.62 402.62">
  <defs>
    <style>
      .cls-1 {
        fill: #2a4bb5;
      }
    </style>
  </defs>
  <g>
    <path class="cls-1" d="M145.15,231.43c-2.3-.01-4.12-.7-5.58-2.17-4.4-4.41-8.78-8.86-13.16-13.29-2.79-2.82-5.56-5.65-8.35-8.48-3.31-3.36-6.63-6.72-9.95-10.08-3.04-3.08-6.07-6.15-9.11-9.24-1.91-1.94-3.82-3.9-5.73-5.84-.69-.7-.74-.69-1.4-.02-4.43,4.5-8.87,9-13.3,13.5-1.74,1.76-3.47,3.54-5.23,5.28-3.07,3.03-7.93,3.02-10.95.01-3.07-3.06-3.07-8.04-.04-11.11,3.39-3.43,6.75-6.9,10.13-10.34,2.9-2.95,5.82-5.87,8.73-8.81,1.89-1.91,3.78-3.82,5.66-5.74,3.25-3.31,8.1-3.31,11.34-.02,4.27,4.34,8.56,8.65,12.84,12.99,3.33,3.38,6.64,6.77,9.97,10.15,3.55,3.6,7.12,7.19,10.67,10.79,2.24,2.27,4.49,4.54,6.72,6.81,3,3.05,5.99,6.12,8.99,9.17,1.04,1.06,2.11,2.1,3.13,3.19,1.36,1.44,2.02,3.15,2.13,5.16.2,3.74-2.57,7.32-6.38,7.97-.45.08-.92.1-1.15.12Z"/>
    <path class="cls-1" d="M100.57,198.02c-.25-2-1.13-3.71-2.61-5.04-3.09-2.77-8.43-2.81-11.55.42-4.11,4.26-8.31,8.43-12.48,12.64-2.16,2.18-4.33,4.34-6.48,6.51-2.26,2.28-4.51,4.58-6.75,6.87-.28.29-.48.3-.77,0-.09-.09-.18-.18-.27-.27h0c-2.82-2.84-5.64-5.68-8.42-8.55-1.88-1.95-4.57-2.7-7.09-2.39-.23.02-.47.05-.71.09-2.04.36-3.49,1.62-3.49,1.66-.09.07-.18.15-.26.23-1.48,1.33-2.36,3.04-2.61,5.04-.35,2.84.54,5.23,2.56,7.25.11.11.21.21.32.32v.02c.68.69,1.35,1.38,2.03,2.07,4.17,4.23,8.32,8.48,12.53,12.67,3.27,3.26,8.35,3.26,11.61.02,3.3-3.29,6.54-6.64,9.81-9.96,2.93-2.98,5.86-5.95,8.8-8.93,4.43-4.48,8.85-8.96,13.29-13.43,2.01-2.02,2.9-4.41,2.56-7.25Z"/>
  </g>
  <g>
    <path class="cls-1" d="M203.12,230.91h-11.67l-13.4-17.07-2.88,2.59v14.48h-9.36v-54.74h9.36v29.6l15.05-13.97h11.96l-17.65,16.13,18.58,22.98Z"/>
    <path class="cls-1" d="M212.12,187.12c-1.73,0-3.17-.55-4.32-1.66-1.15-1.1-1.73-2.52-1.73-4.25s.59-3.09,1.76-4.21c1.18-1.13,2.6-1.69,4.29-1.69s3.09.56,4.21,1.69c1.13,1.13,1.69,2.53,1.69,4.21s-.56,3.15-1.69,4.25c-1.13,1.11-2.53,1.66-4.21,1.66ZM216.73,191.8v39.11h-9.44v-39.11h9.44Z"/>
    <path class="cls-1" d="M235.46,230.91h-9.36v-39.11h9v5.4c2.4-4.27,6.03-6.41,10.88-6.41,1.63,0,3.19.27,4.68.79l-.79,9c-1.68-.53-3.19-.79-4.54-.79-3.03,0-5.43,1.02-7.2,3.06-1.78,2.04-2.67,5.03-2.67,8.97v19.09Z"/>
    <path class="cls-1" d="M284.44,196.77v-4.97h8.93v39.11h-8.93v-4.83c-3.41,3.84-7.66,5.76-12.75,5.76-5.62,0-10.25-1.97-13.9-5.91-3.65-3.94-5.47-8.86-5.47-14.77s1.82-10.76,5.47-14.55c3.7-3.84,8.33-5.76,13.9-5.76,4.99,0,9.24,1.97,12.75,5.91ZM284.66,211.32c0-3.31-1.08-6.12-3.24-8.43-2.16-2.3-4.92-3.46-8.28-3.46s-6.12,1.15-8.28,3.46c-2.11,2.35-3.17,5.16-3.17,8.43s1.05,6.15,3.17,8.5c2.16,2.3,4.92,3.46,8.28,3.46s6.12-1.15,8.28-3.46c2.16-2.3,3.24-5.14,3.24-8.5Z"/>
    <path class="cls-1" d="M349.77,190.72c4.61,0,8.4,1.49,11.38,4.47,2.98,2.98,4.47,7.04,4.47,12.17v23.55h-9.44v-21.83c0-3.12-.73-5.52-2.2-7.2-1.46-1.68-3.45-2.52-5.94-2.52-2.64,0-4.8.91-6.48,2.74-1.68,1.83-2.52,4.25-2.52,7.28v21.54h-9.36v-21.75c0-3.03-.76-5.41-2.27-7.17-1.51-1.75-3.52-2.63-6.01-2.63-2.64,0-4.81.93-6.52,2.77-1.71,1.85-2.56,4.29-2.56,7.31v21.47h-9.36v-39.11h9.22v5.62c1.1-2.06,2.72-3.7,4.86-4.9,2.14-1.2,4.48-1.8,7.02-1.8,2.64.05,4.99.67,7.06,1.87s3.6,2.91,4.61,5.11c1.39-2.21,3.34-3.93,5.84-5.15,2.5-1.23,5.23-1.84,8.21-1.84Z"/>
  </g>
</svg>